# xmcd
# Copyright (C) 1995-1998 Ti Kan
#
# Track frame offsets:
#       150
#       16468
#       44057
#
# Disc length: 2395 seconds
#
# Revision: 0
# Processed by: cddbd v1.4PL0 Copyright (c) Steve Scherf et al.
# Submitted via: CD-Transfer v1.0
#
DISCID=22095903
DTITLE=Superhorny - Life Is A Game
DYEAR=2003
DGENRE=
TTITLE0=Life Is A Game
TTITLE1=Life Is A Game (Instrumental)
TTITLE2=Data Track
EXTD=
EXTT0=
EXTT1=
EXTT2=
PLAYORDER=
